<svg width="100" height="88" viewBox="0 0 100 88" fill="none" xmlns="http://www.w3.org/2000/svg">
<path d="M-1.2453e-06 88L1.40203e-07 72.1517C8.16327 70.7615 13.8776 67.842 17.1429 63.3934C20.4082 58.9447 22.0408 51.0205 22.0408 39.6208L1.22451 39.6208L1.22451 -8.49344e-06L41.2245 -4.99653e-06L41.2245 33.3649C41.2245 50.6035 38.0952 63.9494 31.8367 73.4029C25.5782 83.1343 14.966 88 -1.2453e-06 88ZM58.7755 88L58.7755 72.1517C66.9388 70.7615 72.6531 67.842 75.9184 63.3934C79.1837 58.9447 80.8163 51.0205 80.8163 39.6209L60 39.6209L60 -3.35513e-06L100 1.41784e-07L100 33.3649C100 50.6035 96.8708 63.9494 90.6122 73.4029C84.3537 83.1343 73.7415 88 58.7755 88Z" fill="url(#paint0_linear_177_8)"/>
<defs>
<linearGradient id="paint0_linear_177_8" x1="245" y1="313.5" x2="-3.5" y2="-1.30833e-05" gradientUnits="userSpaceOnUse">
<stop stop-color="#22ECF3" stop-opacity="0.45"/>
<stop offset="1" stop-color="#22ECF3" stop-opacity="0"/>
</linearGradient>
</defs>
</svg>
