<svg width="100" height="88" viewBox="0 0 100 88" fill="none" xmlns="http://www.w3.org/2000/svg">
<path d="M100 0V15.8483C91.8367 17.2385 86.1224 20.158 82.8571 24.6066C79.5918 29.0553 77.9592 36.9795 77.9592 48.3791L98.7755 48.3791L98.7755 88H58.7755L58.7755 54.6351C58.7755 37.3965 61.9048 24.0506 68.1633 14.5971C74.4218 4.86571 85.034 0 100 0ZM41.2245 0V15.8483C33.0612 17.2385 27.3469 20.158 24.0816 24.6066C20.8163 29.0553 19.1837 36.9795 19.1837 48.3791L40 48.3791L40 88H0L0 54.6351C0 37.3965 3.12925 24.0506 9.38775 14.5971C15.6463 4.86571 26.2585 0 41.2245 0Z" fill="url(#paint0_linear_177_9)"/>
<defs>
<linearGradient id="paint0_linear_177_9" x1="-145" y1="-225.5" x2="103.5" y2="88" gradientUnits="userSpaceOnUse">
<stop stop-color="#22ECF3" stop-opacity="0.45"/>
<stop offset="1" stop-color="#22ECF3" stop-opacity="0"/>
</linearGradient>
</defs>
</svg>
