<svg width="846" height="1117" viewBox="0 0 846 1117" fill="none" xmlns="http://www.w3.org/2000/svg">
<g opacity="0.03">
<path fill-rule="evenodd" clip-rule="evenodd" d="M991.49 289.852L560.586 110.578L432.807 219.192L581.585 281.09L439.776 399.282L588.845 461.174L730.554 343.067L862.108 397.799L991.49 289.852Z" fill="white"/>
<path fill-rule="evenodd" clip-rule="evenodd" d="M581.488 224.983L286.305 102.175L242.023 139.819L536.646 262.394L581.488 224.983Z" fill="white"/>
<path fill-rule="evenodd" clip-rule="evenodd" d="M215.685 212.775L282.154 697.104L434.596 759.123L411.644 591.901L578.905 661.921L555.806 494.435L388.666 424.466L368.376 276.6L215.685 212.775Z" fill="white"/>
<path fill-rule="evenodd" clip-rule="evenodd" d="M365.658 620.29L411.193 952.067L464.025 973.564L418.579 642.41L365.658 620.29Z" fill="white"/>
<path fill-rule="evenodd" clip-rule="evenodd" d="M541.714 963.665L906.147 658.614L881.485 487.978L755.657 593.305L730.209 405.094L604.24 510.685L629.666 698.763L518.404 791.894L541.714 963.665Z" fill="white"/>
<path fill-rule="evenodd" clip-rule="evenodd" d="M801.741 674.293L1051.39 465.327L1042.84 406.187L793.663 614.762L801.741 674.293Z" fill="white"/>
</g>
</svg>
