<svg width="51" height="47" viewBox="0 0 51 47" fill="none" xmlns="http://www.w3.org/2000/svg">
<path fill-rule="evenodd" clip-rule="evenodd" d="M45.1233 0H17.7931L13.0361 8.41407H22.4724L17.1445 17.63L26.5966 17.6234L31.9208 8.41407H40.2647L45.1233 0Z" fill="#00A3A9"/>
<path fill-rule="evenodd" clip-rule="evenodd" d="M21.3061 5.49805H2.58402L0.935547 8.41416H19.6221L21.3061 5.49805Z" fill="#00A3A9"/>
<path fill-rule="evenodd" clip-rule="evenodd" d="M1.00098 12.7803L14.6662 36.5323L24.3058 36.4594L19.5876 28.2586L30.2051 28.2811L25.4733 20.0699L14.8635 20.0474L10.6916 12.7958L1.00098 12.7803Z" fill="#049393"/>
<path fill-rule="evenodd" clip-rule="evenodd" d="M17.6543 30.7305L27.0154 47.0012L30.3563 46.976L21.0129 30.7358L17.6543 30.7305Z" fill="#049393"/>
<path fill-rule="evenodd" clip-rule="evenodd" d="M34.4113 44.7781L48.0763 21.0262L43.1936 12.6849L38.4756 20.8858L33.1862 11.6475L28.4658 19.8651L33.7513 29.0971L29.5793 36.3485L34.4113 44.7781Z" fill="#33B7BC"/>
<path fill-rule="evenodd" clip-rule="evenodd" d="M41.575 21.3295L50.9359 5.05894L49.2437 2.16797L39.9004 18.408L41.575 21.3295Z" fill="#33B7BC"/>
</svg>
