<svg width="147" height="144" viewBox="0 0 147 144" fill="none" xmlns="http://www.w3.org/2000/svg">
<g clip-path="url(#clip0_79_480)">
<path fill-rule="evenodd" clip-rule="evenodd" d="M48.3235 117.774V89.4319H53.5112V117.774H48.3235ZM89.6066 117.774V89.4319H94.7943V117.774H89.6066ZM124.323 94.4822H115.465V117.774H110.277V94.4822H101.991L99.0519 89.4319H127.466L134.311 102.136L141.155 89.4319H147L136.924 107.995L136.883 117.774H131.697V108.073L124.322 94.4825L124.323 94.4822ZM15.9654 94.4822V117.774H10.7777V94.4822H2.62539L-0.189453 89.4319H33.5882C36.1925 89.4319 38.7469 90.056 40.6701 91.9243C42.5078 93.7091 43.2425 96.0198 43.2425 98.5668C43.2425 100.686 42.7305 102.711 41.36 104.353C40.1356 105.821 38.5053 106.678 36.7009 107.125L44.9433 117.774H38.5278L30.7475 107.505H27.1374V117.774H21.9495V102.714C25.6737 102.714 29.3973 102.77 33.1213 102.77C34.401 102.77 35.8231 102.541 36.8025 101.636C37.674 100.831 38.0158 99.7865 38.0158 98.6067C38.0158 97.4378 37.6803 96.3953 36.805 95.5997C35.8226 94.7068 34.3956 94.4827 33.1213 94.4827C27.4026 94.4827 21.6842 94.4827 15.9656 94.4827L15.9654 94.4822ZM66.6143 98.2123L66.5511 117.774H61.3631V94.482V94.4223L58.4564 89.4316H67.1484L79.7199 109.049L79.7629 89.4316H84.9509V117.774H79.1271L66.6141 98.212L66.6143 98.2123Z" fill="#FEFEFE"/>
</g>
<path fill-rule="evenodd" clip-rule="evenodd" d="M98.7469 0H59.9376L53.1826 11.9947H66.5823L59.0166 25.1324L72.4387 25.123L79.9992 11.9947H91.8475L98.7469 0Z" fill="#00A3A9"/>
<path fill-rule="evenodd" clip-rule="evenodd" d="M64.9264 7.83789H38.3408L36 11.995H62.5351L64.9264 7.83789Z" fill="#00A3A9"/>
<path fill-rule="evenodd" clip-rule="evenodd" d="M36.0928 18.2168L55.4975 52.0766L69.186 51.9726L62.486 40.282L77.563 40.3141L70.8438 28.6085L55.7777 28.5764L49.8537 18.2389L36.0928 18.2168Z" fill="#049393"/>
<path fill-rule="evenodd" clip-rule="evenodd" d="M59.7402 43.8057L73.0331 67.0004L77.7772 66.9646L64.5095 43.8133L59.7402 43.8057Z" fill="#049393"/>
<path fill-rule="evenodd" clip-rule="evenodd" d="M83.5344 63.8339L102.939 29.9744L96.0055 18.0834L89.3058 29.7743L81.7948 16.6045L75.0918 28.3192L82.5972 41.4798L76.6729 51.8171L83.5344 63.8339Z" fill="#33B7BC"/>
<path fill-rule="evenodd" clip-rule="evenodd" d="M93.7071 30.4075L107 7.21302L104.597 3.0918L91.3291 26.2428L93.7071 30.4075Z" fill="#33B7BC"/>
<g clip-path="url(#clip1_79_480)">
<path d="M24.4513 142.458L22.2107 139.168H21.2366V142.458H19.4831V137.421C20.6521 137.421 21.8211 137.421 23.0875 137.421C23.5746 137.421 23.8668 137.318 24.159 137.112C24.159 136.907 24.3539 136.598 24.3539 136.187C24.3539 135.776 24.2565 135.467 23.9642 135.262C23.7694 135.056 23.3797 134.953 22.8926 134.953C21.7237 134.953 20.5547 134.953 19.2883 134.953V133.206H23.0875C24.0616 133.206 24.7435 133.514 25.328 134.028C25.8151 134.542 26.1074 135.262 26.1074 136.187C26.1074 136.907 25.9125 137.523 25.6203 138.037C25.2306 138.551 24.841 138.86 24.159 138.963L26.5944 142.458H24.4513ZM4.48111 142.561C3.21471 142.561 2.14314 142.15 1.2664 141.224C0.389662 140.299 0 139.168 0 137.729C0 136.393 0.389662 135.262 1.2664 134.336C2.14314 133.411 3.21471 133 4.48111 133C5.55268 133 6.42942 133.308 7.20875 133.925C7.98807 134.542 8.47515 135.364 8.7674 136.29H6.81909C6.62425 135.879 6.33201 135.467 5.94235 135.159C5.55268 134.953 5.06561 134.748 4.48111 134.748C3.70179 134.748 3.01988 135.056 2.5328 135.57C2.04573 136.187 1.75348 136.907 1.75348 137.729C1.75348 138.551 2.04573 139.271 2.5328 139.888C3.01988 140.402 3.70179 140.71 4.48111 140.71C4.96819 140.71 5.45527 140.607 5.84493 140.299C6.33201 140.093 6.62425 139.682 6.81909 139.271H8.7674C8.47515 140.196 7.98807 141.019 7.20875 141.636C6.42942 142.252 5.55268 142.561 4.48111 142.561ZM16.171 142.355L15.3917 140.196H11.8847L11.1054 142.355H9.25447L12.5666 133.103H14.8072L18.1193 142.355H16.171ZM12.4692 138.449H14.8072L13.6382 135.056L12.4692 138.449ZM36.4334 142.458L34.0954 139.065H33.1213V142.355H31.3678V137.421C32.5368 137.421 33.7058 137.421 34.9722 137.421C35.4592 137.421 35.7515 137.318 36.0437 137.112C36.2386 136.907 36.4334 136.598 36.4334 136.187C36.4334 135.776 36.336 135.467 36.0437 135.262C35.8489 135.056 35.4592 134.953 34.9722 134.953C33.8032 134.953 32.6342 134.953 31.3678 134.953V133.206H35.0696C36.0437 133.206 36.7256 133.514 37.3101 134.028C37.7972 134.542 38.0895 135.262 38.0895 136.187C38.0895 136.907 37.8946 137.523 37.6024 138.037C37.2127 138.551 36.8231 138.86 36.1412 138.963L38.5765 142.458H36.4334ZM45.7853 134.953H41.6938V136.804H45.493V138.551H41.6938V140.505H45.7853V142.252H39.9404V133H45.7853V134.953ZM52.7992 133.206H54.5527V142.458H52.507L48.7078 135.981L48.9026 138.551V142.458H47.1491V133.206H49.1948L52.994 139.682L52.7992 137.112V133.206ZM62.6382 133.206V134.953H60.1054V142.355H58.3519V134.953H55.8191V133.206H62.6382ZM69.165 142.458L68.3857 140.299H64.8787L64.0994 142.458H62.2485L65.5606 133.206H67.8012L71.1133 142.458H69.165ZM65.5606 138.449H67.8986L66.7296 135.056L65.5606 138.449ZM74.2306 140.607H77.9324V142.355H72.3797V133.103H74.1332V140.607H74.2306ZM88.4533 137.421C88.9404 137.626 89.2326 137.832 89.5249 138.243C89.7197 138.654 89.9145 139.168 89.9145 139.682C89.9145 140.505 89.6223 141.121 89.1352 141.636C88.6481 142.15 87.8688 142.355 86.9921 142.355H83.0954V136.804H86.6998C87.3817 136.804 87.7714 136.495 87.7714 135.879C87.7714 135.57 87.674 135.262 87.4791 135.159C87.2843 135.056 86.9921 134.953 86.6024 134.953C85.4334 134.953 84.167 134.953 82.998 134.953V133.206H86.7972C87.5765 133.206 88.2585 133.411 88.7455 133.822C89.2326 134.234 89.4274 134.85 89.4274 135.57C89.5249 136.495 89.1352 137.112 88.4533 137.421ZM86.7972 140.607C87.1869 140.607 87.5765 140.505 87.674 140.299C87.8688 140.093 87.9662 139.888 87.9662 139.579C87.9662 139.271 87.8688 138.963 87.674 138.757C87.4791 138.551 87.1869 138.551 86.6998 138.551H84.7515V140.607H86.7972ZM92.1551 134.439C93.0318 133.514 94.1034 133 95.4672 133C96.7336 133 97.8052 133.411 98.6819 134.336C99.5587 135.262 99.9483 136.393 99.9483 137.729C99.9483 139.065 99.5587 140.196 98.6819 141.121C97.8052 142.047 96.7336 142.458 95.4672 142.458C94.2008 142.458 93.1292 142.047 92.2525 141.121C91.3757 140.196 90.9861 139.065 90.9861 137.729C90.8887 136.495 91.2783 135.364 92.1551 134.439ZM97.4155 135.673C96.9284 135.159 96.2465 134.85 95.4672 134.85C94.6879 134.85 94.006 135.159 93.5189 135.673C93.0318 136.187 92.7396 136.907 92.7396 137.832C92.7396 138.654 93.0318 139.374 93.5189 139.991C94.006 140.505 94.6879 140.813 95.4672 140.813C96.2465 140.813 96.9284 140.505 97.4155 139.991C97.9026 139.477 98.1948 138.757 98.1948 137.832C98.1948 136.907 97.9026 136.187 97.4155 135.673ZM106.962 133.206H108.813V138.757C108.813 139.991 108.521 141.019 107.839 141.636C107.157 142.355 106.28 142.664 105.209 142.664C104.137 142.664 103.26 142.355 102.579 141.636C101.897 140.916 101.604 139.991 101.604 138.757V133.206H103.455V138.654C103.455 140.093 104.04 140.813 105.209 140.813C106.378 140.813 106.962 140.093 106.962 138.654V133.206ZM116.801 133.206V134.953H114.268V142.355H112.515V134.953H109.982V133.206H116.801ZM118.068 142.458V133.206H119.821V142.458H118.068ZM130.537 137.832C130.537 139.168 130.147 140.299 129.27 141.121L130.537 142.869L129.173 144L127.907 142.15C127.322 142.458 126.64 142.561 125.958 142.561C124.692 142.561 123.62 142.15 122.744 141.224C121.867 140.299 121.477 139.168 121.477 137.832C121.477 136.495 121.867 135.364 122.744 134.439C123.62 133.514 124.692 133.103 125.958 133.103C127.225 133.103 128.296 133.514 129.173 134.439C130.05 135.364 130.537 136.495 130.537 137.832ZM124.01 135.673C123.523 136.187 123.231 136.907 123.231 137.832C123.231 138.654 123.523 139.374 124.01 139.991C124.497 140.505 125.179 140.813 125.958 140.813C126.738 140.813 127.419 140.505 127.907 139.991C128.394 139.477 128.686 138.757 128.686 137.832C128.686 137.009 128.394 136.29 127.907 135.673C127.419 135.159 126.738 134.85 125.958 134.85C125.179 134.85 124.497 135.056 124.01 135.673ZM137.453 133.206H139.304V138.757C139.304 139.991 139.012 141.019 138.33 141.636C137.648 142.355 136.771 142.664 135.7 142.664C134.628 142.664 133.752 142.355 133.07 141.636C132.388 140.916 132.095 139.991 132.095 138.757V133.206H133.946V138.654C133.946 140.093 134.531 140.813 135.7 140.813C136.869 140.813 137.453 140.093 137.453 138.654V133.206ZM147 134.953H142.909V136.804H146.708V138.551H142.909V140.505H147V142.252H141.155V133H147V134.953Z" fill="white"/>
</g>
<defs>
<clipPath id="clip0_79_480">
<rect width="147" height="60" fill="white" transform="translate(0 79)"/>
</clipPath>
<clipPath id="clip1_79_480">
<rect width="147" height="11" fill="white" transform="translate(0 133)"/>
</clipPath>
</defs>
</svg>
