<svg width="481" height="361" viewBox="0 0 481 361" fill="none" xmlns="http://www.w3.org/2000/svg">
<g opacity="0.1">
<mask id="mask0_126_37" style="mask-type:alpha" maskUnits="userSpaceOnUse" x="0" y="0" width="481" height="361">
<rect x="480.497" y="0.5" width="360" height="479" transform="rotate(90 480.497 0.5)" fill="url(#paint0_linear_126_37)" stroke="#D4CAFF"/>
</mask>
<g mask="url(#mask0_126_37)">
<path d="M237.502 453.92C168.169 453.92 111.962 397.635 111.962 328.202C111.962 258.77 168.169 202.484 237.502 202.484C306.834 202.484 363.041 258.77 363.041 328.202C363.041 397.635 306.834 453.92 237.502 453.92Z" stroke="#D4CAFF"/>
<path d="M250.769 458.902C173.193 458.902 110.304 395.925 110.304 318.238C110.304 240.55 173.193 177.573 250.769 177.573C328.345 177.573 391.234 240.55 391.234 318.238C391.234 395.925 328.345 458.902 250.769 458.902Z" stroke="#D4CAFF"/>
<path d="M261.549 463.885C176.645 463.885 107.816 394.959 107.816 309.934C107.816 224.909 176.645 155.983 261.549 155.983C346.452 155.983 415.281 224.909 415.281 309.934C415.281 394.959 346.452 463.885 261.549 463.885Z" stroke="#D4CAFF"/>
<path d="M277.304 467.206C185.989 467.206 111.963 393.076 111.963 301.63C111.963 210.184 185.989 136.054 277.304 136.054C368.619 136.054 442.646 210.184 442.646 301.63C442.645 393.076 368.619 467.206 277.304 467.206Z" stroke="#D4CAFF"/>
<path d="M292.644 470.528C195.147 470.528 116.108 391.378 116.108 293.742C116.108 196.105 195.147 116.955 292.644 116.955C390.141 116.955 469.18 196.105 469.18 293.742C469.18 391.379 390.141 470.528 292.644 470.528Z" stroke="#D4CAFF"/>
<path d="M310.058 474.68C202.943 474.68 116.109 387.723 116.109 280.456C116.109 173.188 202.943 86.2316 310.058 86.2316C417.172 86.2316 504.007 173.188 504.007 280.456C504.007 387.723 417.172 474.68 310.058 474.68Z" stroke="#D4CAFF"/>
</g>
</g>
<defs>
<linearGradient id="paint0_linear_126_37" x1="737.032" y1="13.4669" x2="488.702" y2="484.066" gradientUnits="userSpaceOnUse">
<stop stop-color="#747DEF"/>
<stop offset="1" stop-color="#5E3BE1"/>
</linearGradient>
</defs>
</svg>
