<svg width="156" height="166" viewBox="0 0 156 166" fill="none" xmlns="http://www.w3.org/2000/svg">
<path d="M48.5654 152.61V154.479H37.8447V152.61H48.5654ZM44.2041 148.045V159.432H42.2168V148.045H44.2041Z" fill="#323232"/>
<path d="M11.5654 152.61V154.479H0.844727V152.61H11.5654ZM7.2041 148.045V159.432H5.2168V148.045H7.2041Z" fill="#323232"/>
<path d="M48.5654 117.61V119.479H37.8447V117.61H48.5654ZM44.2041 113.045V124.432H42.2168V113.045H44.2041Z" fill="#323232"/>
<path d="M83.5654 12.6104V14.4795H72.8447V12.6104H83.5654ZM79.2041 8.04492V19.4316H77.2168V8.04492H79.2041Z" fill="#323232"/>
<path d="M83.5654 47.6104V49.4795H72.8447V47.6104H83.5654ZM79.2041 43.0449V54.4316H77.2168V43.0449H79.2041Z" fill="#323232"/>
<path d="M83.5654 82.6104V84.4795H72.8447V82.6104H83.5654ZM79.2041 78.0449V89.4316H77.2168V78.0449H79.2041Z" fill="#33B7BC"/>
<path d="M83.5654 117.61V119.479H72.8447V117.61H83.5654ZM79.2041 113.045V124.432H77.2168V113.045H79.2041Z" fill="#323232"/>
<path d="M83.5654 152.61V154.479H72.8447V152.61H83.5654ZM79.2041 148.045V159.432H77.2168V148.045H79.2041Z" fill="#323232"/>
<path d="M118.565 12.6104V14.4795H107.845V12.6104H118.565ZM114.204 8.04492V19.4316H112.217V8.04492H114.204Z" fill="#323232"/>
<path d="M118.565 47.6104V49.4795H107.845V47.6104H118.565ZM114.204 43.0449V54.4316H112.217V43.0449H114.204Z" fill="#323232"/>
<path d="M118.565 82.6104V84.4795H107.845V82.6104H118.565ZM114.204 78.0449V89.4316H112.217V78.0449H114.204Z" fill="#323232"/>
<path d="M118.565 117.61V119.479H107.845V117.61H118.565ZM114.204 113.045V124.432H112.217V113.045H114.204Z" fill="#323232"/>
<path d="M118.565 152.61V154.479H107.845V152.61H118.565ZM114.204 148.045V159.432H112.217V148.045H114.204Z" fill="#323232"/>
<path d="M153.565 12.6104V14.4795H142.845V12.6104H153.565ZM149.204 8.04492V19.4316H147.217V8.04492H149.204Z" fill="#33B7BC"/>
<path d="M153.565 47.6104V49.4795H142.845V47.6104H153.565ZM149.204 43.0449V54.4316H147.217V43.0449H149.204Z" fill="#323232"/>
<path d="M153.565 82.6104V84.4795H142.845V82.6104H153.565ZM149.204 78.0449V89.4316H147.217V78.0449H149.204Z" fill="#323232"/>
<path d="M153.565 117.61V119.479H142.845V117.61H153.565ZM149.204 113.045V124.432H147.217V113.045H149.204Z" fill="#323232"/>
<path d="M153.565 152.61V154.479H142.845V152.61H153.565ZM149.204 148.045V159.432H147.217V148.045H149.204Z" fill="#323232"/>
</svg>
